<svg width="20.000000" height="20.000000" viewBox="0 0 20 20" fill="none" xmlns="http://www.w3.org/2000/svg" xmlns:xlink="http://www.w3.org/1999/xlink">
	<desc>
			Created with Pixso.
	</desc>
	<defs>
		<clipPath id="clip42_1629">
			<rect id="eye" rx="0.000000" width="19.000000" height="19.000000" transform="translate(0.500000 0.500000)" fill="white" fill-opacity="0"/>
		</clipPath>
	</defs>
	<rect id="eye" rx="0.000000" width="19.000000" height="19.000000" transform="translate(0.500000 0.500000)" fill="#FFFFFF" fill-opacity="0"/>
	<g clip-path="url(#clip42_1629)">
		<path id="Vector" d="M10 3.33C15.83 3.33 19.16 9.99 19.16 9.99C19.16 9.99 15.83 16.66 10 16.66C4.16 16.66 0.83 9.99 0.83 9.99C0.83 9.99 4.16 3.33 10 3.33Z" stroke="#191A15" stroke-opacity="1.000000" stroke-width="2.000000" stroke-linejoin="round"/>
		<path id="Vector" d="M10 12.5C8.61 12.5 7.5 11.38 7.5 10C7.5 8.61 8.61 7.5 10 7.5C11.38 7.5 12.5 8.61 12.5 10C12.5 11.38 11.38 12.5 10 12.5Z" stroke="#191A15" stroke-opacity="1.000000" stroke-width="2.000000" stroke-linejoin="round"/>
	</g>
</svg>
