<svg width="26.000000" height="26.000000" viewBox="0 0 26 26" fill="none" xmlns="http://www.w3.org/2000/svg" xmlns:xlink="http://www.w3.org/1999/xlink">
	<desc>
			Created with Pixso.
	</desc>
	<defs>
		<clipPath id="clip42_1612">
			<rect id="Property 1=Hover" rx="0.000000" width="25.000000" height="25.000000" transform="translate(0.500000 0.500000)" fill="white" fill-opacity="0"/>
		</clipPath>
	</defs>
	<rect id="Property 1=Hover" rx="0.000000" width="25.000000" height="25.000000" transform="translate(0.500000 0.500000)" fill="#FFFFFF" fill-opacity="0"/>
	<g clip-path="url(#clip42_1612)">
		<path id="Vector" d="M22.57 4.99C22.02 4.44 21.36 4 20.64 3.7C19.92 3.4 19.14 3.24 18.36 3.24C17.57 3.24 16.8 3.4 16.08 3.7C15.35 4 14.7 4.44 14.14 4.99L13 6.14L11.85 4.99C10.73 3.87 9.21 3.24 7.63 3.24C6.05 3.24 4.54 3.87 3.42 4.99C2.3 6.11 1.67 7.62 1.67 9.2C1.67 10.78 2.3 12.3 3.42 13.42L4.57 14.57L13 22.99L21.42 14.57L22.57 13.42C23.13 12.86 23.56 12.21 23.86 11.48C24.16 10.76 24.32 9.99 24.32 9.2C24.32 8.42 24.16 7.65 23.86 6.92C23.56 6.2 23.13 5.54 22.57 4.99Z" fill="#3470FF" fill-opacity="1.000000" fill-rule="nonzero"/>
		<path id="Vector" d="M20.64 3.7C19.92 3.4 19.14 3.24 18.36 3.24C17.57 3.24 16.8 3.4 16.08 3.7C15.35 4 14.7 4.44 14.14 4.99L13 6.14L11.85 4.99C10.73 3.87 9.21 3.24 7.63 3.24C6.05 3.24 4.54 3.87 3.42 4.99C2.3 6.11 1.67 7.62 1.67 9.2C1.67 10.78 2.3 12.3 3.42 13.42L4.57 14.57L13 22.99L21.42 14.57L22.57 13.42C23.13 12.86 23.56 12.21 23.86 11.48C24.16 10.76 24.32 9.99 24.32 9.2C24.32 8.42 24.16 7.65 23.86 6.92C23.56 6.2 23.13 5.54 22.57 4.99C22.02 4.44 21.36 4 20.64 3.7Z" stroke="#3470FF" stroke-opacity="1.000000" stroke-width="2.000000" stroke-linejoin="round"/>
	</g>
</svg>
