<svg width="59.000000" height="59.000000" viewBox="0 0 59 59" fill="none" xmlns="http://www.w3.org/2000/svg" xmlns:xlink="http://www.w3.org/1999/xlink">
	<desc>
			Created with Pixso.
	</desc>
	<defs>
		<clipPath id="clip42_825">
			<rect id="mdi:users" rx="0.000000" width="18.835608" height="18.835606" transform="translate(23.240234 18.106628) rotate(15.000000)" fill="white" fill-opacity="0"/>
		</clipPath>
	</defs>
	<rect id="Rectangle 34" x="12.467773" rx="10.000000" width="48.173298" height="48.173298" transform="rotate(15 12.467773 0.000000)" fill="#FBC75E" fill-opacity="1.000000"/>
	<rect id="mdi:users" rx="0.000000" width="18.835608" height="18.835606" transform="translate(23.240234 18.106628) rotate(15.000000)" fill="#FFFFFF" fill-opacity="0"/>
	<g clip-path="url(#clip42_825)">
		<path id="Vector" d="M31.87 34.6L31.44 36.19L20.27 33.2L20.7 31.6C20.7 31.6 21.55 28.41 27.14 29.91C32.73 31.4 31.87 34.6 31.87 34.6ZM31.11 26.26C31.26 25.71 31.24 25.13 31.06 24.58C30.87 24.04 30.53 23.57 30.08 23.22C29.62 22.87 29.08 22.67 28.5 22.63C27.93 22.59 27.37 22.72 26.87 23.01C26.37 23.3 25.97 23.72 25.72 24.23C25.47 24.75 25.37 25.32 25.45 25.89C25.52 26.46 25.76 26.99 26.14 27.42C26.52 27.85 27.01 28.16 27.57 28.31C28.31 28.51 29.1 28.4 29.76 28.02C30.43 27.64 30.91 27 31.11 26.26ZM32.68 31.39C33.07 31.9 33.34 32.49 33.48 33.12C33.61 33.75 33.61 34.4 33.47 35.02L33.04 36.62L36.23 37.48L36.66 35.88C36.66 35.88 37.44 32.98 32.68 31.39ZM33.85 24C33.31 23.85 32.72 23.87 32.19 24.06C32.49 24.87 32.53 25.75 32.31 26.58C32.09 27.42 31.61 28.16 30.94 28.71C31.31 29.14 31.81 29.45 32.36 29.59C33.1 29.79 33.89 29.69 34.55 29.3C35.22 28.92 35.7 28.29 35.9 27.55C36.1 26.81 36 26.02 35.61 25.35C35.23 24.69 34.6 24.2 33.85 24Z" fill="#FBFBFB" fill-opacity="1.000000" fill-rule="nonzero"/>
	</g>
</svg>
