<svg width="40.000000" height="40.000000" viewBox="0 0 40 40" fill="none" xmlns="http://www.w3.org/2000/svg" xmlns:xlink="http://www.w3.org/1999/xlink">
	<desc>
			Created with Pixso.
	</desc>
	<defs>
		<clipPath id="clip42_852">
			<rect id="mdi:user" rx="0.000000" width="23.000000" height="23.000000" transform="translate(8.500000 8.500000)" fill="white" fill-opacity="0"/>
		</clipPath>
	</defs>
	<rect id="Image" rx="10.000000" width="40.000000" height="40.000000" fill="#3470FF" fill-opacity="1.000000"/>
	<rect id="mdi:user" rx="0.000000" width="23.000000" height="23.000000" transform="translate(8.500000 8.500000)" fill="#FFFFFF" fill-opacity="0"/>
	<g clip-path="url(#clip42_852)">
		<path id="Vector" d="M20 12C21.06 12 22.07 12.42 22.82 13.17C23.57 13.92 24 14.93 24 16C24 17.06 23.57 18.07 22.82 18.82C22.07 19.57 21.06 20 20 20C18.93 20 17.92 19.57 17.17 18.82C16.42 18.07 16 17.06 16 16C16 14.93 16.42 13.92 17.17 13.17C17.92 12.42 18.93 12 20 12ZM20 22C24.41 22 28 23.79 28 26L28 28L12 28L12 26C12 23.79 15.58 22 20 22Z" fill="#FBFBFB" fill-opacity="1.000000" fill-rule="nonzero"/>
	</g>
</svg>
