<svg width="10.000000" height="17.000000" viewBox="0 0 10 17" fill="none" xmlns="http://www.w3.org/2000/svg" xmlns:xlink="http://www.w3.org/1999/xlink">
	<desc>
			Created with Pixso.
	</desc>
	<defs>
		<clipPath id="clip42_819">
			<rect id="fa6-solid:question" rx="0.000000" width="9.000000" height="16.000000" transform="translate(0.500000 0.500000)" fill="white" fill-opacity="0"/>
		</clipPath>
	</defs>
	<rect id="fa6-solid:question" rx="0.000000" width="9.000000" height="16.000000" transform="translate(0.500000 0.500000)" fill="#FFFFFF" fill-opacity="0"/>
	<g clip-path="url(#clip42_819)">
		<path id="Vector" d="M2.5 5.31C2.5 4.14 3.39 3.18 4.5 3.18L5.5 3.18C6.6 3.18 7.5 4.14 7.5 5.31L7.5 5.43C7.5 6.15 7.15 6.82 6.58 7.21L5.26 8.11C4.87 8.38 4.55 8.74 4.33 9.17C4.11 9.6 4 10.08 4 10.57L4 10.62C4 11.21 4.44 11.68 5 11.68C5.55 11.68 6 11.21 6 10.62L6 10.57C6 10.3 6.13 10.05 6.34 9.9L7.66 9C8.8 8.22 9.5 6.87 9.5 5.43L9.5 5.31C9.5 2.96 7.7 1.06 5.5 1.06L4.5 1.06C2.29 1.06 0.5 2.96 0.5 5.31C0.5 5.9 0.94 6.37 1.5 6.37C2.05 6.37 2.5 5.9 2.5 5.31ZM5 15.93C5.33 15.93 5.64 15.79 5.88 15.54C6.11 15.29 6.25 14.96 6.25 14.6C6.25 14.25 6.11 13.91 5.88 13.67C5.64 13.42 5.33 13.28 5 13.28C4.66 13.28 4.35 13.42 4.11 13.67C3.88 13.91 3.75 14.25 3.75 14.6C3.75 14.96 3.88 15.29 4.11 15.54C4.35 15.79 4.66 15.93 5 15.93Z" fill="#FBFBFB" fill-opacity="1.000000" fill-rule="nonzero"/>
	</g>
</svg>
